<?xml version="1.0" encoding="UTF-8"?>
<svg id="Layer_2" data-name="Layer 2" xmlns="http://www.w3.org/2000/svg" viewBox="0 0 976.12 232.5">
  <defs>
    <style>
      .cls-1 {
        fill: #fff;
      }
    </style>
  </defs>
  <g id="Layer_1-2" data-name="Layer 1">
    <g>
      <g>
        <path class="cls-1" d="M190.38,110.26c-9.61-8.85-14.25-24.51-16.63-38.83-2.35-17.56,2.19-33.47,11.27-45.81,29-38.29,81.03-30.15,115.89,1.29,24.89,21.57,42.92,54.12,52.36,87.2,15.71,58.33-6.36,106.27-40.12,116.35-34.79,7.75-30.85-49.39-35.84-72.92-1.41-8.17-3.37-16.32-6.04-24.07-9.26-28.37-31.61-54.06-58.43-34.7-8.34,5.58-12.85,18.14-22.35,11.58l-.11-.08Z"/>
        <path class="cls-1" d="M244.62,164.3c6.65,7.07-3.18,24.56-8.05,32.97-12.05,20.12-30.3,34.94-52.4,34.16-23.12-.55-44.47-15.29-58.73-34-15.09-19.45-22.52-44.15-34.14-68.23-7.49-15.52-16.42-30.93-28.1-43.28-13.36-14.75-36.64-25.13-37.85-47.3-.25-9.43,4.92-18.67,11.52-25.02C57.46-7.01,91.73,1.84,112.78,24.35c17.13,17.62,28.14,43.95,39.48,67.51,14.22,28.39,31.43,63.47,61.12,69.63,10.84,2.05,26.75-1.7,31.16,2.73l.08.07Z"/>
        <path class="cls-1" d="M3.33,141c-7.12,12.82-1.72,31.88,5.87,44.48,13.73,23.32,30.18,42.82,54.35,46.49,22.87,3.23,40.48-8.35,34.26-35.08-2.53-11.61-8.25-23.36-14.19-33.7-14.01-24.15-28.19-41.69-50.82-40.51-11.73.56-23.71,7.17-29.36,18.11l-.11.21Z"/>
      </g>
      <g>
        <path class="cls-1" d="M502.31,147.93c-.11,2.77-.99,4.8-2.64,6.08-1.66,1.28-3.44,1.92-5.36,1.92-1.82,0-3.52-.62-5.12-1.84s-2.51-3.12-2.72-5.68c-.54-4.58-1.15-9.49-1.84-14.72-.7-5.22-1.47-10.53-2.32-15.92-.85-5.39-1.84-10.72-2.96-16-1.12-5.28-2.32-10.26-3.6-14.96-1.71,4.05-3.33,8.19-4.88,12.4-1.55,4.21-3.17,8.56-4.88,13.04-2.13,5.76-4.27,11.52-6.4,17.28-2.14,5.76-4.32,11.25-6.56,16.48-1.92,2.13-4.21,3.2-6.88,3.2-2.03,0-4.21-1.01-6.56-3.04l-28.96-56.8c-.43,4.59-.85,9.26-1.28,14-.43,4.75-.85,9.57-1.28,14.48l-3.04,32.48c-.86,2.14-2,3.7-3.44,4.72-1.44,1.01-2.91,1.52-4.4,1.52-1.92,0-3.65-.64-5.2-1.92-1.55-1.28-2.43-3.15-2.64-5.6l8.16-85.76c.32-2.03,1.22-3.6,2.72-4.72,1.49-1.12,3.2-1.68,5.12-1.68,2.77,0,5.06,1.28,6.88,3.84,2.98,5.23,5.92,10.69,8.8,16.4,2.88,5.71,5.81,11.49,8.8,17.36,2.77,5.55,5.36,10.7,7.76,15.44,2.4,4.75,4.98,9.63,7.76,14.64,1.6-4.05,3.2-8.21,4.8-12.48,1.6-4.26,3.25-8.64,4.96-13.12,2.45-6.61,4.93-13.17,7.44-19.68,2.5-6.51,5.04-12.74,7.6-18.72,1.7-2.88,4.16-4.32,7.36-4.32,1.6,0,3.12.51,4.56,1.52,1.44,1.02,2.48,2.54,3.12,4.56,1.92,6.51,3.76,13.33,5.52,20.48,1.76,7.15,3.41,14.4,4.96,21.76,1.55,7.36,2.88,14.72,4,22.08,1.12,7.36,2,14.45,2.64,21.28Z"/>
        <path class="cls-1" d="M589.57,145.85c.64,1.6.77,3.12.4,4.56-.38,1.44-1.12,2.61-2.24,3.52s-2.54,1.44-4.24,1.6c-1.71.16-3.52-.24-5.44-1.2-.85-.85-1.68-1.73-2.48-2.64-.8-.9-1.47-1.79-2-2.64-3.84,2.88-7.44,4.72-10.8,5.52-3.36.8-7.01,1.2-10.96,1.2-2.88,0-5.68-.29-8.4-.88-2.72-.59-5.47-1.78-8.24-3.6-4.05-2.88-6.94-6.29-8.64-10.24-1.71-3.95-2.56-8.1-2.56-12.48s.66-8.72,2-12.72c1.33-4,3.17-7.73,5.52-11.2,2.35-3.47,5.04-6.64,8.08-9.52,3.04-2.88,6.32-5.44,9.84-7.68.75-.42,1.78-.9,3.12-1.44,1.33-.53,2.85-1.04,4.56-1.52,1.71-.48,3.47-.85,5.28-1.12,1.81-.26,3.57-.4,5.28-.4,3.3,0,6.26.4,8.88,1.2,2.61.8,4.51,2.75,5.68,5.84v8c0,2.13-.03,3.92-.08,5.36-.06,1.44-.08,2.64-.08,3.6v2.72c0,3.74.11,7.6.32,11.6.21,4,.59,7.92,1.12,11.76.21,1.17.72,2.56,1.52,4.16.8,1.6,1.63,3.04,2.48,4.32h-.16c.75,1.17,1.36,2.14,1.84,2.88.48.75.61,1.23.4,1.44ZM567.97,134.49c-.85-3.73-1.39-7.6-1.6-11.6-.22-4-.32-7.97-.32-11.92,0-2.77.05-5.28.16-7.52.1-2.24.16-4.42.16-6.56-1.82.22-3.65.7-5.52,1.44-1.87.75-3.17,1.28-3.92,1.6-2.88,1.28-5.47,3.09-7.76,5.44-2.3,2.35-4.19,4.96-5.68,7.84-1.49,2.88-2.59,5.9-3.28,9.04-.7,3.15-.78,6.22-.24,9.2.32,2.35,1.15,4.3,2.48,5.84,1.33,1.55,2.91,2.72,4.72,3.52,1.81.8,3.76,1.2,5.84,1.2s4.08-.32,6-.96c2.34-1.39,5.33-3.57,8.96-6.56Z"/>
        <path class="cls-1" d="M615.4,178.17c0-2.24,1.06-4.05,3.2-5.44,2.13-1.39,4.9-1.55,8.32-.48,6.22,4.05,12.16,6.08,17.84,6.08,6.11,0,10.47-1.42,13.1-4.24,2.62-2.83,3.94-6.96,3.94-12.4v-8.64l-6.4,2.08c-2.56.64-4.7,1.09-6.4,1.36-1.71.27-3.42.4-5.12.4-4.8,0-9.2-1.04-13.2-3.12-4-2.08-7.39-4.8-10.16-8.16-2.77-3.36-4.93-7.15-6.48-11.36-1.55-4.21-2.32-8.5-2.32-12.88,0-2.45.21-4.96.64-7.52.43-2.56,1.12-5.07,2.08-7.52,1.17-2.98,2.8-5.81,4.88-8.48,2.08-2.66,4.48-4.96,7.2-6.88,2.72-1.92,5.62-3.44,8.72-4.56,3.09-1.12,6.29-1.68,9.6-1.68,3.63,0,6.9.61,9.84,1.84,2.93,1.23,5.78,2.75,8.56,4.56,1.49-2.13,3.57-3.2,6.24-3.2,1.81,0,3.46.51,4.96,1.52,1.49,1.01,2.5,2.59,3.04,4.72v67.04c0,5.65-.89,10.53-2.65,14.64-1.76,4.1-5.16,7.81-10.19,11.12-2.04,1.28-4.28,2.42-6.74,3.44-2.46,1.01-4.92,1.63-7.38,1.84-2.46.32-5.59.34-9.39.08-3.8-.27-7.57-.96-11.31-2.08s-7-2.64-9.77-4.56c-2.77-1.92-4.32-4.43-4.64-7.52ZM661.79,136.09c0-4.8-.03-9.47-.08-14-.06-4.53-.08-9.2-.08-14-2.14-1.92-4.42-3.84-6.83-5.76s-5.01-2.98-7.79-3.2c-4.4-.32-7.91.32-10.53,1.92s-4.63,3.6-6.03,6c-1.4,2.4-2.28,4.88-2.65,7.44-.38,2.56-.56,4.64-.56,6.24,0,3.41.48,6.48,1.45,9.2.96,2.72,2.28,5.01,3.94,6.88,1.66,1.87,3.62,3.31,5.87,4.32,2.25,1.01,4.61,1.52,7.07,1.52,4.93,0,10.34-2.19,16.23-6.56Z"/>
        <path class="cls-1" d="M707.46,62.17c0-2.45.88-4.56,2.64-6.32s3.86-2.64,6.32-2.64,4.72.88,6.48,2.64,2.64,3.87,2.64,6.32-.88,4.54-2.64,6.24c-1.76,1.71-3.92,2.56-6.48,2.56s-4.56-.85-6.32-2.56c-1.76-1.7-2.64-3.79-2.64-6.24ZM724.58,147.77c-.11,2.67-.95,4.64-2.54,5.92s-3.33,1.92-5.23,1.92-3.59-.59-5.07-1.76c-1.48-1.17-2.38-2.98-2.69-5.44l-.48-60.8c.53-2.24,1.48-3.92,2.85-5.04,1.37-1.12,3.01-1.68,4.91-1.68,1.69,0,3.27.51,4.75,1.52,1.48,1.01,2.48,2.59,3.01,4.72l.48,60.64Z"/>
        <path class="cls-1" d="M814.23,148.07c-.11,2.67-.99,4.65-2.64,5.93-1.65,1.28-3.39,1.92-5.2,1.92-1.92,0-3.66-.59-5.2-1.76-1.55-1.17-2.48-2.98-2.8-5.44v-3.92c0-1.44-.03-3.36-.08-5.76-.05-2.4-.08-5.49-.08-9.28v-14.8c0-1.38.05-3.14.16-5.28.1-2.13,0-4.24-.32-6.32-.32-2.08-.94-3.86-1.85-5.36-.91-1.49-2.34-2.24-4.26-2.24-3.22,0-6.36.91-9.42,2.72-3.06,1.81-5.82,4.48-8.29,8-.86,1.28-1.53,2.48-2.01,3.6-.48,1.12-.83,2.75-1.05,4.88v16.08c0,5.28.05,10.64.16,16.08-.1,2.67-.95,4.64-2.53,5.92-1.59,1.28-3.33,1.92-5.23,1.92-1.79,0-3.46-.59-4.99-1.76-1.53-1.18-2.45-2.99-2.77-5.45v-28.83c0-4.7-.03-9.42-.08-14.18-.05-4.75-.08-9.69-.08-14.82.53-2.35,1.5-4.05,2.93-5.12,1.42-1.06,3.03-1.6,4.83-1.6,1.48,0,2.95.46,4.43,1.36,1.48.91,2.48,2.27,3.01,4.08,3.1-2.16,6.42-3.86,9.96-5.1,3.53-1.24,7.17-1.86,10.92-1.86,4.07,0,7.95.96,11.64,2.89,3.69,1.92,6.66,4.86,8.91,8.82,1.07,1.92,1.77,3.96,2.09,6.09.32,2.14.48,4.33.48,6.57s-.11,4.46-.32,6.66c-.21,2.19-.32,4.25-.32,6.17v29.18Z"/>
        <path class="cls-1" d="M877.02,83.61c4.48,0,8.45.96,11.92,2.88,3.47,1.92,6.4,4.45,8.8,7.6,2.4,3.15,4.21,6.72,5.44,10.72,1.22,4,1.84,8.08,1.84,12.24,0,1.81-.11,3.49-.32,5.04-.21,1.55-.48,3.12-.8,4.72-1.17,4.38-2.91,8.48-5.2,12.32-2.3,3.84-4.99,7.17-8.08,10-3.09,2.83-6.53,5.04-10.32,6.64-3.79,1.6-7.76,2.4-11.92,2.4-4.37,0-8.35-.96-11.92-2.88-3.57-1.92-6.59-4.4-9.04-7.44-2.45-3.04-4.35-6.45-5.68-10.24-1.34-3.78-2-7.6-2-11.44,0-5.33.99-10.53,2.96-15.6,1.97-5.06,4.64-9.6,8-13.6,3.36-4,7.3-7.22,11.84-9.68,4.53-2.45,9.36-3.68,14.48-3.68ZM856.54,118.08c-.64,2.46-.96,5.19-.96,8.19s.43,5.81,1.28,8.43c.85,2.62,2.26,4.84,4.24,6.66,1.97,1.82,4.61,2.73,7.92,2.73s6.05-.94,8.56-2.81c2.5-1.87,4.64-4.17,6.4-6.9,1.76-2.73,3.12-5.67,4.08-8.83.96-3.16,1.44-6.02,1.44-8.59,0-2.35-.27-4.68-.8-6.99-.54-2.3-1.36-4.36-2.48-6.18-1.12-1.82-2.48-3.29-4.08-4.41-1.6-1.13-3.42-1.69-5.44-1.69-2.56,0-4.96.67-7.2,2.01-2.24,1.34-4.24,3-6,4.98-1.76,1.98-3.23,4.17-4.4,6.58-1.17,2.41-2.03,4.68-2.56,6.82Z"/>
        <path class="cls-1" d="M931.48,98.01c-2.67-.43-4.67-1.28-6-2.56-1.34-1.28-2-2.77-2-4.48s.72-3.3,2.16-4.8c1.44-1.49,3.6-2.24,6.48-2.24h7.36v-24.48c.53-2.24,1.52-3.92,2.96-5.04,1.44-1.12,3.07-1.68,4.88-1.68,1.71,0,3.31.51,4.8,1.52,1.49,1.01,2.5,2.59,3.04,4.72v24.96h14.08c2.35.64,4.08,1.6,5.2,2.88,1.12,1.28,1.68,2.67,1.68,4.16,0,3.42-2.45,5.76-7.36,7.04h-13.6v29.44c0,3.31.03,6.61.08,9.92.05,3.31.08,6.61.08,9.92,0,2.67-.85,4.64-2.56,5.92-1.71,1.28-3.47,1.92-5.28,1.92s-3.49-.59-5.04-1.76c-1.55-1.17-2.48-2.98-2.8-5.44,0-4.05-.03-8.24-.08-12.56-.06-4.32-.08-8.61-.08-12.88v-24.48h-8Z"/>
      </g>
    </g>
  </g>
</svg>