<?xml version="1.0" encoding="UTF-8"?>
<svg id="Layer_2" data-name="Layer 2" xmlns="http://www.w3.org/2000/svg" xmlns:xlink="http://www.w3.org/1999/xlink" viewBox="0 0 993.08 815.03">
  <defs>
    <style>
      .cls-1 {
        fill: url(#linear-gradient);
      }

      .cls-2 {
        fill: #fff;
      }

      .cls-3 {
        fill: #008cbf;
      }

      .cls-4 {
        fill: #005452;
      }
    </style>
    <linearGradient id="linear-gradient" x1="199.98" y1="69.89" x2="575.84" y2="555.08" gradientUnits="userSpaceOnUse">
      <stop offset="0" stop-color="#066"/>
      <stop offset=".54" stop-color="#007994"/>
      <stop offset="1" stop-color="#008cbf"/>
      <stop offset="1" stop-color="#066"/>
    </linearGradient>
  </defs>
  <g id="Layer_1-2" data-name="Layer 1">
    <g>
      <g>
        <path class="cls-3" d="M527.47,288.67c-26.63-23.17-39.49-64.17-46.08-101.67-6.51-45.97,6.07-87.62,31.23-119.93,80.34-100.25,224.49-78.92,321.09,3.37,68.97,56.46,118.9,141.7,145.06,228.31,43.54,152.71-17.62,278.22-111.15,304.61-96.4,20.29-85.47-129.3-99.31-190.91-3.9-21.38-9.34-42.72-16.75-63.03-25.66-74.27-87.59-141.55-161.9-90.84-23.12,14.61-35.61,47.5-61.91,30.31l-.29-.21Z"/>
        <path class="cls-1" d="M677.73,430.16c18.44,18.52-8.81,64.31-22.31,86.31-33.39,52.68-83.96,91.48-145.19,89.43-64.05-1.45-123.22-40.03-162.71-89.02-41.81-50.91-62.38-115.58-94.57-178.63-20.76-40.63-45.48-80.98-77.86-113.31-37.02-38.62-101.5-65.8-104.88-123.83-.69-24.68,13.62-48.88,31.93-65.5,57.07-53.98,152-30.79,210.31,28.14,47.45,46.13,77.97,115.06,109.39,176.75,39.39,74.34,87.08,166.16,169.33,182.31,30.04,5.38,74.13-4.44,86.33,7.15l.23.19Z"/>
        <path class="cls-4" d="M9.23,369.15c-19.74,33.56-4.76,83.46,16.26,116.46,38.05,61.06,83.63,112.11,150.58,121.71,63.38,8.47,112.16-21.86,94.93-91.85-7-30.4-22.86-61.15-39.3-88.24-38.8-63.24-78.11-109.14-140.81-106.05-32.5,1.45-65.7,18.76-81.35,47.41l-.3.55Z"/>
      </g>
      <g>
        <path class="cls-2" d="M142.68,775v-38.64c-1.06-2.59-2.64-4.62-4.74-6.11-2.11-1.48-4.45-2.08-7.04-1.79-.96.1-1.77.29-2.44.57-.67.29-1.34.72-2.01,1.29-.67.57-1.41,1.34-2.23,2.3-.81.96-1.8,2.15-2.94,3.59v38.93c-.1,2.39-.89,4.17-2.37,5.31-1.49,1.15-3.09,1.72-4.81,1.72-1.63,0-3.14-.53-4.52-1.58-1.39-1.05-2.23-2.68-2.51-4.88v-55.02c1.15-3.92,3.49-5.89,7.03-5.89,1.34,0,2.58.31,3.73.93,1.15.62,2.06,1.65,2.73,3.09,1.43-.86,3.13-1.63,5.09-2.3,1.96-.67,4.04-1.01,6.24-1.01,3.44,0,6.91.77,10.4,2.3,3.49,1.53,6.38,3.54,8.68,6.03.95-.96,2.03-1.94,3.23-2.94,1.19-1.01,2.44-1.92,3.73-2.73,1.29-.81,2.63-1.48,4.01-2.01,1.39-.53,2.8-.79,4.23-.79,3.06,0,6.07.53,9.03,1.58,2.96,1.05,5.64,2.47,8.03,4.24,2.39,1.77,4.3,3.83,5.73,6.18,1.43,2.35,2.15,4.86,2.15,7.54v39.65c-.09,2.39-.88,4.16-2.34,5.31-1.47,1.15-3.01,1.72-4.62,1.72-1.71,0-3.22-.53-4.55-1.58-1.33-1.05-2.13-2.68-2.42-4.88v-38.79c-1.05-2.97-2.54-5.05-4.45-6.25-1.92-1.2-3.78-1.8-5.6-1.8-2.2,0-4.17.58-5.89,1.72s-3.26,3.3-4.6,6.46l.14,37.92c-.1,2.39-.86,4.17-2.3,5.31-1.44,1.15-3.02,1.72-4.74,1.72s-3.26-.53-4.6-1.58c-1.34-1.05-2.15-2.68-2.44-4.88Z"/>
        <path class="cls-2" d="M319.4,773.13c.57,1.44.69,2.8.36,4.09-.34,1.29-1,2.35-2.01,3.16s-2.28,1.29-3.81,1.44c-1.53.14-3.16-.22-4.88-1.08-.77-.77-1.51-1.55-2.23-2.37-.72-.81-1.32-1.6-1.8-2.37-3.45,2.59-6.68,4.24-9.7,4.96-3.02.72-6.3,1.08-9.84,1.08-2.59,0-5.1-.27-7.54-.79-2.44-.53-4.91-1.6-7.4-3.23-3.64-2.59-6.23-5.65-7.76-9.19-1.53-3.54-2.3-7.28-2.3-11.21s.6-7.83,1.8-11.42c1.2-3.59,2.85-6.94,4.96-10.05,2.1-3.11,4.52-5.96,7.25-8.55s5.67-4.88,8.83-6.9c.67-.38,1.6-.81,2.8-1.29,1.2-.48,2.56-.93,4.09-1.36,1.53-.43,3.11-.77,4.74-1.01,1.63-.24,3.21-.36,4.74-.36,2.97,0,5.62.36,7.97,1.08,2.34.72,4.04,2.47,5.1,5.24v7.18c0,1.92-.02,3.52-.07,4.81-.05,1.29-.07,2.37-.07,3.23v2.44c0,3.35.09,6.82.29,10.42.19,3.59.53,7.11,1.01,10.56.19,1.05.65,2.3,1.37,3.74s1.46,2.73,2.23,3.88h-.14c.67,1.05,1.22,1.92,1.65,2.59.43.67.55,1.1.36,1.29ZM300,762.93c-.77-3.35-1.25-6.82-1.44-10.41-.19-3.59-.29-7.16-.29-10.7,0-2.49.05-4.74.14-6.75.09-2.01.14-3.97.14-5.89-1.63.19-3.28.62-4.96,1.29-1.68.67-2.85,1.15-3.52,1.44-2.59,1.15-4.91,2.78-6.97,4.88-2.06,2.11-3.76,4.45-5.1,7.04-1.34,2.59-2.32,5.29-2.95,8.12-.62,2.83-.7,5.58-.21,8.26.29,2.11,1.03,3.86,2.23,5.24,1.2,1.39,2.61,2.44,4.24,3.16,1.63.72,3.38,1.08,5.24,1.08s3.66-.29,5.39-.86c2.11-1.24,4.79-3.21,8.04-5.89Z"/>
        <path class="cls-2" d="M389.38,802.15c0-2.01.96-3.64,2.87-4.88,1.91-1.25,4.4-1.39,7.47-.43,5.58,3.64,10.92,5.46,16.02,5.46,5.48,0,9.4-1.27,11.76-3.81,2.36-2.54,3.54-6.25,3.54-11.13v-7.76l-5.75,1.87c-2.3.57-4.21.98-5.75,1.22-1.53.24-3.07.36-4.6.36-4.31,0-8.26-.93-11.85-2.8-3.59-1.87-6.63-4.31-9.12-7.33-2.49-3.02-4.43-6.42-5.82-10.2-1.39-3.78-2.08-7.64-2.08-11.56,0-2.2.19-4.45.57-6.75.38-2.3,1.01-4.55,1.87-6.75,1.05-2.68,2.51-5.22,4.38-7.61,1.87-2.39,4.02-4.45,6.46-6.18,2.44-1.72,5.05-3.09,7.83-4.09,2.78-1,5.65-1.51,8.62-1.51,3.25,0,6.2.55,8.83,1.65,2.63,1.1,5.19,2.47,7.69,4.09,1.34-1.91,3.21-2.87,5.6-2.87,1.63,0,3.11.46,4.45,1.37,1.34.91,2.25,2.32,2.73,4.24v60.19c0,5.07-.79,9.46-2.38,13.14-1.58,3.69-4.63,7.01-9.15,9.98-1.83,1.15-3.84,2.18-6.05,3.09-2.21.91-4.42,1.46-6.63,1.65-2.21.29-5.02.31-8.43.07-3.41-.24-6.8-.86-10.16-1.87-3.36-1.01-6.28-2.37-8.77-4.09-2.49-1.72-3.88-3.97-4.17-6.75ZM431.04,764.37c0-4.31-.02-8.5-.07-12.57-.05-4.07-.07-8.26-.07-12.57-1.93-1.72-3.97-3.45-6.13-5.17-2.16-1.72-4.5-2.68-7-2.87-3.95-.29-7.1.29-9.45,1.72-2.36,1.44-4.16,3.23-5.41,5.39-1.25,2.15-2.04,4.38-2.38,6.68s-.5,4.17-.5,5.6c0,3.07.43,5.82,1.3,8.26s2.04,4.5,3.54,6.18c1.49,1.68,3.25,2.97,5.27,3.88,2.02.91,4.14,1.37,6.35,1.37,4.43,0,9.28-1.96,14.58-5.89Z"/>
        <path class="cls-2" d="M518.83,698.01c0-2.2.79-4.09,2.37-5.67s3.47-2.37,5.67-2.37,4.24.79,5.82,2.37,2.37,3.47,2.37,5.67-.79,4.07-2.37,5.6c-1.58,1.53-3.52,2.3-5.82,2.3s-4.09-.77-5.67-2.3c-1.58-1.53-2.37-3.4-2.37-5.6ZM534.2,774.86c-.1,2.39-.86,4.16-2.28,5.31-1.42,1.15-2.99,1.72-4.69,1.72s-3.22-.53-4.55-1.58c-1.33-1.05-2.13-2.68-2.42-4.88l-.43-54.59c.47-2.01,1.33-3.52,2.56-4.53,1.23-1.01,2.7-1.51,4.41-1.51,1.52,0,2.94.46,4.26,1.37,1.33.91,2.23,2.32,2.7,4.24l.43,54.44Z"/>
        <path class="cls-2" d="M661.5,775.13c-.1,2.4-.89,4.18-2.37,5.33-1.49,1.15-3.04,1.73-4.67,1.73-1.72,0-3.28-.53-4.67-1.58-1.39-1.05-2.23-2.68-2.51-4.88v-3.52c0-1.29-.02-3.02-.07-5.17-.05-2.15-.07-4.93-.07-8.33v-13.29c0-1.24.05-2.82.14-4.74.09-1.91,0-3.81-.29-5.67-.29-1.87-.84-3.47-1.66-4.81-.82-1.34-2.1-2.01-3.83-2.01-2.89,0-5.71.81-8.45,2.44-2.75,1.63-5.23,4.02-7.44,7.18-.77,1.15-1.37,2.23-1.81,3.23-.43,1.01-.75,2.47-.94,4.38v14.44c0,4.74.05,9.55.14,14.44-.09,2.4-.85,4.17-2.28,5.32-1.42,1.15-2.99,1.72-4.69,1.72-1.61,0-3.11-.53-4.48-1.58-1.37-1.05-2.2-2.68-2.49-4.89v-25.89c0-4.22-.02-8.46-.07-12.73-.05-4.27-.07-8.7-.07-13.3.47-2.11,1.35-3.64,2.63-4.6,1.28-.96,2.72-1.44,4.33-1.44,1.33,0,2.65.41,3.98,1.22,1.33.81,2.23,2.04,2.7,3.66,2.79-1.94,5.77-3.46,8.94-4.58,3.17-1.11,6.44-1.67,9.8-1.67,3.65,0,7.14.86,10.45,2.59,3.31,1.73,5.98,4.37,8,7.92.96,1.73,1.59,3.55,1.87,5.47.29,1.92.43,3.88.43,5.9s-.1,4.01-.29,5.97c-.19,1.97-.29,3.82-.29,5.54v26.2Z"/>
        <path class="cls-2" d="M764.67,717.25c4.02,0,7.59.86,10.7,2.59,3.11,1.72,5.75,4,7.9,6.82,2.15,2.82,3.78,6.03,4.88,9.62,1.1,3.59,1.65,7.25,1.65,10.99,0,1.63-.1,3.14-.29,4.52-.19,1.39-.43,2.8-.72,4.24-1.05,3.93-2.61,7.61-4.67,11.06-2.06,3.45-4.48,6.44-7.25,8.98-2.78,2.54-5.87,4.52-9.27,5.96-3.4,1.44-6.97,2.15-10.7,2.15-3.93,0-7.49-.86-10.7-2.59-3.21-1.72-5.91-3.95-8.12-6.68-2.2-2.73-3.9-5.79-5.1-9.19-1.2-3.4-1.8-6.82-1.8-10.27,0-4.79.88-9.46,2.66-14.01,1.77-4.55,4.17-8.62,7.18-12.21,3.02-3.59,6.56-6.49,10.63-8.69,4.07-2.2,8.4-3.3,13-3.3ZM746.28,748.2c-.57,2.21-.86,4.66-.86,7.35s.38,5.21,1.15,7.57c.77,2.35,2.03,4.35,3.81,5.98,1.77,1.63,4.14,2.45,7.11,2.45s5.43-.84,7.69-2.52c2.25-1.68,4.17-3.75,5.75-6.2,1.58-2.45,2.8-5.09,3.66-7.93.86-2.84,1.29-5.41,1.29-7.71,0-2.11-.24-4.2-.72-6.27-.48-2.06-1.22-3.91-2.23-5.55-1.01-1.63-2.23-2.96-3.66-3.96s-3.07-1.52-4.88-1.52c-2.3,0-4.45.6-6.46,1.8-2.01,1.2-3.81,2.69-5.39,4.47-1.58,1.78-2.9,3.75-3.95,5.91-1.05,2.16-1.82,4.2-2.3,6.12Z"/>
        <path class="cls-2" d="M860.37,730.18c-2.4-.38-4.19-1.15-5.39-2.3-1.2-1.15-1.8-2.49-1.8-4.02s.65-2.97,1.94-4.31c1.29-1.34,3.23-2.01,5.82-2.01h6.61v-21.98c.48-2.01,1.37-3.52,2.66-4.53s2.75-1.51,4.38-1.51c1.53,0,2.97.46,4.31,1.36,1.34.91,2.25,2.32,2.73,4.24v22.41h12.64c2.11.58,3.66,1.44,4.67,2.59,1,1.15,1.51,2.39,1.51,3.73,0,3.07-2.2,5.17-6.61,6.32h-12.21v26.43c0,2.97.02,5.94.07,8.91.05,2.97.07,5.94.07,8.91,0,2.39-.77,4.17-2.3,5.31-1.53,1.15-3.11,1.72-4.74,1.72s-3.14-.53-4.52-1.58c-1.39-1.05-2.23-2.68-2.51-4.88,0-3.64-.03-7.4-.07-11.28-.05-3.88-.07-7.73-.07-11.56v-21.98h-7.18Z"/>
      </g>
    </g>
  </g>
</svg>