<?xml version="1.0" encoding="UTF-8"?>
<svg id="Layer_2" data-name="Layer 2" xmlns="http://www.w3.org/2000/svg" viewBox="0 0 353.38 216.6">
  <defs>
    <style>
      .cls-1 {
        fill: #005452;
      }
    </style>
  </defs>
  <g id="Layer_1-2" data-name="Layer 1">
    <g>
      <path class="cls-1" d="M187.69,102.72c-9.48-8.24-14.05-22.83-16.4-36.18-2.31-16.36,2.16-31.18,11.11-42.67,28.59-35.67,79.88-28.08,114.26,1.2,24.54,20.09,42.31,50.42,51.62,81.24,15.49,54.34-6.27,99-39.55,108.39-34.3,7.22-30.41-46.01-35.34-67.93-1.39-7.61-3.32-15.2-5.96-22.43-9.13-26.43-31.17-50.37-57.61-32.33-8.23,5.2-12.67,16.9-22.03,10.78l-.1-.08Z"/>
      <path class="cls-1" d="M241.16,153.07c6.56,6.59-3.13,22.88-7.94,30.71-11.88,18.75-29.88,32.55-51.66,31.82-22.79-.51-43.85-14.24-57.9-31.68-14.88-18.12-22.2-41.13-33.65-63.56-7.39-14.46-16.18-28.82-27.71-40.32-13.17-13.74-36.12-23.41-37.32-44.06-.24-8.78,4.85-17.39,11.36-23.31C56.65-6.53,90.43,1.72,111.18,22.69c16.88,16.41,27.74,40.94,38.93,62.9,14.02,26.45,30.99,59.13,60.25,64.87,10.69,1.91,26.38-1.58,30.72,2.54l.08.07Z"/>
      <path class="cls-1" d="M3.28,131.36c-7.02,11.94-1.69,29.7,5.79,41.44,13.54,21.73,29.76,39.89,53.58,43.31,22.55,3.01,39.91-7.78,33.78-32.68-2.49-10.82-8.13-21.76-13.99-31.4-13.81-22.5-27.79-38.84-50.11-37.74-11.56.52-23.38,6.68-28.95,16.87l-.11.2Z"/>
    </g>
  </g>
</svg>